<svg version="1.1" id="Layer_1" xmlns:x="ns_extend;" xmlns:i="ns_ai;" xmlns:graph="ns_graphs;" xmlns="http://www.w3.org/2000/svg" xmlns:xlink="http://www.w3.org/1999/xlink" x="0px" y="0px" viewBox="0 0 200.2 56.6" style="enable-background:new 0 0 200.2 56.6;" xml:space="preserve">
 <style type="text/css">
  .st0{fill-rule:evenodd;clip-rule:evenodd;fill:#B10A32;}
	.st1{fill-rule:evenodd;clip-rule:evenodd;}
 </style>
 <metadata>
  <sfw xmlns="ns_sfw;">
   <slices>
   </slices>
   <sliceSourceBounds bottomLeftOrigin="true" height="56.6" width="200.2" x="0" y="1.7">
   </sliceSourceBounds>
  </sfw>
 </metadata>
 <g>
  <g>
   <path class="st0" d="M31.6,33.8l-10.1,0c0,0-0.3,0-0.5-0.3c-0.2-0.3-0.1-0.4-0.1-0.4v-9.5c0,0,0-0.3,0.2-0.5
			c0.2-0.2,0.5-0.2,0.5-0.2h13.4c0,0,0.2,0,0.5,0.1c0.2,0.1,0.3,0.6,0.3,0.6v9.7c0,0-0.1,0.3-0.2,0.4c-0.1,0.1-0.3,0.2-0.3,0.2
			L31.6,33.8z M31.6,16.8V6.3c10.7,1.6,19,10.8,19,22c0,11.2-8.2,20.4-19,22l0-10.5h4.2c3.5,0,6-2.6,6-6.1V22.8c0-3.5-2.8-6-6.3-6
			L31.6,16.8z M14.8,22.8c0-3.5,2.1-6,5.6-6l4.6,0V6.3C14.3,8,6.1,17.2,6.1,28.3c0,11.1,8.2,20.4,18.9,22l0-10.4l-3.9,0
			c-3.5,0-6.3-2.7-6.3-6.2C14.8,33.7,14.8,22.8,14.8,22.8z M0,28.3C0,12.7,12.7,0,28.3,0C44,0,56.6,12.7,56.6,28.3
			C56.6,44,44,56.6,28.3,56.6C12.7,56.6,0,44,0,28.3">
   </path>
  </g>
  <g>
   <path class="st1" d="M189.2,54.2c0,0,0-0.2,0.1-0.3c0.1-0.1,0.6-0.2,0.8-0.5c0.2-0.3,4.3-9.6,4.3-9.6l0.3-0.1l3.8,8.8
			c0.3,0.6,0.4,1,0.6,1.1c0.2,0.1,0.5,0.3,0.8,0.3c0.2,0,0.1,0.2,0.1,0.2l-4.2,0c0,0-0.3-0.2,0-0.3c0.2-0.1,0.8-0.3,0.9-0.7
			c0.1-0.2,0-0.6-0.2-1.1c-0.1-0.4-0.5-1.2-0.7-1.3c-0.2-0.1-1-0.1-1.7-0.1c-0.7,0-1.5,0-1.8,0.1c-0.3,0.2-0.7,1.6-0.8,1.9
			c-0.1,0.2,0,0.7,0.2,0.9c0.3,0.3,1,0.4,1.2,0.5c0.1,0,0.1,0.3,0.1,0.3L189.2,54.2z M195.6,49.9c0.1-0.1-0.3-0.9-0.7-1.7
			c-0.3-0.6-0.7-1.8-0.9-1.8c-0.1,0-0.5,1-0.8,1.7c-0.3,0.7-0.7,1.7-0.6,1.8c0.1,0.1,0.8,0.2,1.4,0.1C194.8,50,195.5,50,195.6,49.9
			 M79.1,52c0.2-1.1,0-1.8-0.7-2.3c-0.3-0.2-1.1-0.6-1.8-0.6c-0.9,0-1.5-0.1-1.5,0.9l0,2.5c0,1.4,1.7,1.2,1.7,1.2
			C78.3,53.6,78.9,52.8,79.1,52 M106.3,53.8c0,0,0.5-0.1,0.8-0.5c0.1-0.2,0.3-0.5,0.3-1.1v-6.5c0-0.4-0.1-0.8-0.3-1
			c-0.2-0.2-0.4-0.3-1-0.4c0,0-0.4-0.3,0-0.4c0,0,3.9,0,3.9,0s0.4,0.1,0,0.3c-0.3,0.2-0.5,0-0.8,0.3c-0.2,0.2-0.3,0.5-0.3,1.1v3.2
			c0,0.1,0.1,0.3,0.2,0.3c0.2,0,0.3-0.2,0.4-0.3c0.4-0.4,1.1-1.1,1.7-1.6c1.1-1,1.6-1.5,1.8-1.8c0.2-0.3,0.3-0.8,0.1-0.9
			c-0.1-0.2-0.5-0.2-0.7-0.3c0,0-0.3-0.2,0-0.3c0,0,3.5,0,3.5,0s0.1,0.3-0.1,0.4c-0.5,0-0.7,0.1-1,0.3c-0.3,0.1-0.9,0.5-1.4,1
			c0,0-2.6,2.2-2.5,2.5c0.1,0.4,1.6,2.1,2.6,3.5c0.4,0.6,0.9,1.3,1.1,1.5c0.2,0.2,0.6,0.5,0.9,0.5c0.4,0,0.2,0.3,0.2,0.3
			s-2-0.1-2.3,0c-0.2,0-0.5-0.4-0.5-0.4c-0.8-1-3-4.1-3.2-4.3c-0.1-0.1-1,0.6-1,1.2c0,0,0,1.9,0,1.9c0,0.6,0.1,0.9,0.3,1
			c0.3,0.3,1,0.4,1,0.3c0.3,0.1,0.1,0.3,0.1,0.3h-4.2C106.1,54.1,106,53.9,106.3,53.8 M93.2,53.8c0.3-0.1,0.8-0.4,1-0.7
			c0.2-0.2,0.3-0.4,0.3-1.2c0,0,0-4.9,0-5.7c0-0.6-0.2-1.4-0.5-1.6c-0.3-0.2-0.6-0.3-1-0.4c0,0-0.3-0.3,0-0.4c0.1,0,2.7,0,2.7,0
			l6.3,7c0,0,0.2,0.3,0.4,0.2c0,0,0.1-0.3,0.1-0.3c0-0.5,0-4.6,0-4.6c0-0.4,0.1-0.9-0.2-1.3c-0.4-0.4-1.1-0.5-1.4-0.6
			c-0.2-0.1-0.2-0.3,0-0.3c0,0.1,3.4,0,3.4,0c0.2,0,0.1,0.3,0.1,0.3c-0.4,0.1-0.8,0.2-0.9,0.4c-0.2,0.3-0.3,0.7-0.3,1.5v8.1h-0.3
			c0,0-6.9-7.5-7.3-7.9c-0.2-0.2-0.3,0.1-0.3,0.3c0,0.3,0,5.2,0,5.2c0,0.8,0.2,1.4,0.7,1.6c0.2,0.1,0.8,0.2,1,0.3
			c0.1,0,0.2,0.3,0.2,0.3h-3.9C93.2,54.1,93.1,53.8,93.2,53.8 M81.7,54.1c0,0,0-0.2,0.1-0.3c0.1-0.1,0.6-0.2,0.8-0.5
			c0.2-0.3,4.3-9.6,4.3-9.6l0.3-0.1l3.8,8.7c0.3,0.6,0.4,1,0.6,1.1c0.1,0.1,0.5,0.3,0.8,0.3c0.2,0,0.1,0.2,0.1,0.2l-4.2,0.1
			c0,0-0.1-0.2,0.1-0.3c0.2-0.1,0.8-0.4,0.9-0.8c0.1-0.2,0-0.6-0.2-1.1c-0.1-0.4-0.5-1.1-0.7-1.3c-0.2-0.1-1-0.1-1.7-0.1
			c-0.7,0-1.5,0-1.8,0.1c-0.3,0.2-0.7,1.6-0.8,1.9c-0.1,0.2,0,0.7,0.2,0.9c0.3,0.3,1,0.4,1.2,0.5c0.1,0,0.1,0.3,0.1,0.3L81.7,54.1z
			 M88,49.8c0.1-0.1-0.3-0.9-0.7-1.7c-0.3-0.6-0.7-1.8-0.9-1.8c-0.1,0-0.5,1-0.8,1.7c-0.3,0.7-0.7,1.7-0.6,1.8
			c0.1,0.1,0.8,0.1,1.4,0.1C87.2,49.9,87.9,49.9,88,49.8 M78.6,46.6c0-0.7-0.4-1.3-0.8-1.7c-0.3-0.2-0.7-0.5-1.3-0.5
			c-0.8,0-1.3,0.1-1.3,0.8l0,2.7c-0.1,0.6,1.5,0.5,1.5,0.5C77.9,48.4,78.5,48.2,78.6,46.6 M72.1,53.8c0.5-0.1,0.9-0.3,1-0.5
			c0.2-0.2,0.2-0.3,0.2-0.9v-6.8c0-0.4-0.1-0.6-0.3-0.9c-0.5-0.5-1-0.2-1.1-0.4c-0.1-0.1,0-0.4,0-0.4h4.3c1.2,0,2,0.1,2.8,0.4
			c0.6,0.3,1.2,0.9,1.2,1.9c0,1.4-1.1,1.9-1.6,2.2c0.9,0.2,2.3,0.7,2.3,2.3c0,1.7-0.9,2.7-1.8,3c-0.6,0.2-1.3,0.3-2.2,0.3h-4.8
			L72.1,53.8L72.1,53.8z M133.8,53.9c0,0,0.5-0.2,0.8-0.4c0.2-0.1,0.3-0.4,0.3-1.1l0-6.4c0-0.5-0.1-0.8-0.3-1.1
			c-0.2-0.3-0.7-0.4-1.2-0.4c0,0-0.4-0.3-0.1-0.4c0,0,3,0,4.4,0c1.5,0,3-0.1,3.1,0c0.2,0.1,0.1,1.6,0.1,1.8c0,0.1-0.1,0.4-0.2,0.5
			c-0.2,0-0.2-0.3-0.2-0.5c0-0.4-0.3-0.8-0.4-0.9c-0.2-0.3-0.6-0.3-0.8-0.3h-2.3c-0.2,0-0.3,0-0.3,0.1c-0.1,0.1-0.1,0.2-0.2,0.5V48
			c0,0.2,0,0.4,0.1,0.4c0.2,0.1,1.8,0.1,1.8,0.1c0.3,0,0.6-0.3,0.6-0.4c0.1-0.2,0.4-0.5,0.5-0.9c0.1-0.2,0.4-0.3,0.4,0.1
			c0,0.3,0,3.3,0,3.3c-0.2,0.2-0.3-0.1-0.3-0.1c-0.1-0.6-0.2-0.8-0.4-1c-0.2-0.2-0.4-0.4-0.8-0.4c0,0-1.3,0-1.3,0
			c-0.5,0-0.5,0.5-0.5,0.7c0,0,0,2.7,0,2.7c0,0.3,0.1,0.6,0.3,0.8c0.2,0.1,0.6,0.5,1.2,0.5c0.3,0,0.1,0.3,0.1,0.3h-4.4
			C133.7,54.2,133.5,54,133.8,53.9 M123.2,45.2c0.9-0.9,2.3-1.3,3.7-1.3c1.4,0,2.5,0.2,3.5,1.1c1,1,1.5,2.2,1.6,3.8
			c0,1.7-0.5,3-1.6,4c-0.9,0.9-2.3,1.4-3.6,1.4c-1.4,0-2.8-0.4-3.8-1.4c-1-1-1.3-2.3-1.3-3.9C121.6,47.4,122.2,46.2,123.2,45.2
			 M124.5,52.6c0.8,1,1.4,1.2,2.6,1.2c0.8,0,1.6-0.5,2.3-1.2c0.5-0.6,0.8-1.8,0.8-3.4c0-1.7-0.5-2.8-1.1-3.5
			c-0.7-0.9-1.5-1.1-2.4-1.1c-0.9,0-1.8,0.2-2.4,0.9c-0.7,0.7-0.9,1.9-1,3.6C123.3,50.5,124.1,52.1,124.5,52.6 M177.9,53.8
			c0,0,0.7-0.2,0.9-0.6c0.2-0.2,0.3-0.5,0.3-1.3l-0.1-6.4c0-0.5-0.4-0.8-0.6-0.9c-0.2-0.1-0.6-0.1-0.7-0.2c0,0-0.4-0.3-0.1-0.4
			c0,0,2.6-0.1,2.6,0c0.3,0.2,4.4,4.7,6,6.6c0.6,0.7,0.8,0.5,0.7-0.1c0,0,0-4.8,0-4.8c0-0.7-0.3-0.9-0.5-1c-0.3-0.2-0.6-0.4-1.1-0.5
			c0,0-0.4-0.1,0-0.3c0,0,3.3,0,3.3,0c0.2,0,0.2,0.2,0,0.2c-0.3,0-0.7,0.2-0.8,0.5c-0.2,0.2-0.3,0.7-0.3,1.5l0,7.8
			c0,0.4-0.4,0.2-0.4,0.2s-6.3-6.9-7.1-7.8c0,0-0.1-0.2-0.3-0.1c-0.1,0.1-0.1,0.1-0.1,0.3c0,0,0,5.2,0,5.2c0,0.8,0.3,1.3,0.5,1.6
			c0.2,0.2,0.4,0.3,1,0.4c0.3,0,0.3,0.3,0.3,0.3l-3.9,0C177.7,54.2,177.6,53.9,177.9,53.8 M172,53.9c0.1,0,0.5-0.2,0.7-0.4
			c0.2-0.1,0.3-0.4,0.3-1l0-6.6c0-0.4,0-0.9-0.2-1.1c-0.3-0.3-0.7-0.4-1.3-0.5c0,0-0.3-0.1,0-0.3c0,0,4.2,0,4.2,0
			c0.3,0.1,0,0.3,0,0.3c-0.3,0-0.6,0.2-0.7,0.3c-0.2,0.2-0.2,0.7-0.2,1.1v6.8c0,0.6,0.2,0.9,0.4,1.1c0.2,0.1,0.4,0.2,1,0.3
			c0.4,0.1,0,0.3,0,0.3l-4.1,0C171.7,54.1,172,53.9,172,53.9 M158.7,53.9c0,0,0.6-0.4,0.8-0.6c0.1-0.2,0.3-0.4,0.3-1.1l0-6.3
			c0-0.6-0.1-0.9-0.2-1.1c-0.1-0.3-0.5-0.3-1.1-0.3c0,0-0.8-0.2-0.1-0.4c0,0,4,0,4,0c0.4,0,0.1,0.3,0.1,0.3c-0.3,0-0.6,0.1-0.7,0.3
			c-0.1,0.2-0.3,0.5-0.3,1.1v2.2c0,0,0,0.5,0.4,0.5c0.7,0,3.7,0.1,4.2,0c0.6,0,0.7-0.4,0.7-0.6c0-0.6,0-2.1,0-2.1
			c0-0.5-0.1-1-0.3-1.1c-0.2-0.2-0.5-0.3-1.1-0.3c-0.4-0.1-0.1-0.3-0.1-0.3l4.2,0c0,0,0.2,0.2-0.1,0.3c-0.3,0-0.5,0.1-0.7,0.3
			c-0.2,0.2-0.2,0.5-0.2,1.1l0,6.8c0,0.6,0.1,0.7,0.3,0.9c0.2,0.1,0.3,0.4,0.9,0.5c0.3,0,0.4,0.3,0.1,0.4c0,0-3.9,0.1-3.9,0.1
			s-0.5-0.2,0.1-0.4c0,0,0.4-0.1,0.6-0.4c0.1-0.2,0.2-0.7,0.2-1c0,0,0-2.4,0-2.7c0-0.3-0.1-0.6-0.4-0.5c0,0-4.1,0-4.5,0
			c-0.2,0-0.4,0.1-0.4,0.6c0,0,0,2.7,0,2.7c0,0.5,0.3,1,0.5,1.2c0.2,0.2,0.5,0.3,1,0.4c0.5,0.1,0.1,0.3,0.1,0.3l-4.5,0
			C158.6,54.2,158.4,54,158.7,53.9 M154.5,44.3c0.5,0.3,1,0.5,1.2,0.5c0.1,0,0.3-0.3,0.3-0.5c0.2-0.3,0.3,0.3,0.3,0.2l0.2,2.9
			c0,0-0.2,0.3-0.4,0c-0.2-0.7-0.7-1.4-1.1-1.8c-0.6-0.6-1.6-1.2-2.6-1.2c-1.2,0-2.1,0.5-2.7,1.3c-0.5,0.7-0.9,1.8-0.9,2.9
			c0,1.4,0.6,2.9,1.4,3.7c0.8,0.7,1.6,1.1,2.7,1.1c0.8,0,1.2-0.2,1.9-0.6c0.4-0.2,0.9-0.8,1.4-1.2c0.3-0.2,0.4,0.1,0.4,0.1
			c0,0.2-0.8,1.2-1.5,1.7c-0.5,0.4-1.9,0.9-2.6,0.9c-1.7,0-2.6-0.1-4-1.4c-0.8-0.7-1.3-2.3-1.3-3.7c0-1.5,0.5-2.7,1.4-3.8
			c1-1.1,2.3-1.6,3.9-1.6C153.1,43.9,154,44.1,154.5,44.3">
   </path>
  </g>
  <g>
   <g>
    <g>
     <path class="st1" d="M112.7,15c0.1-0.1,0.1,0.1,0.4,0.5c0.3,0.3,0.1,0.4,0.3,0.7c0.2,0.3,0.2,0.1,0.1,0.5c0,0.3-0.1,0.3-0.4,0.5
					c-0.3,0.2,0,0.1-0.3-0.1c-0.3-0.3,0-0.7-0.3-0.9c-0.3-0.2-0.3-0.2-0.2-0.6C112.4,15,112.6,15.1,112.7,15 M111.6,16.1
					c0.1-0.1,0.4,0.3,0.5,0.7c0.2,0.4,0.2,0.3,0.3,0.8c0.1,0.4,0.1,0.2-0.3,0.7c-0.4,0.4-0.9,0.4-1.3,0.8c-0.5,0.4-0.7,0.3-1.2,0.6
					c-0.4,0.3-0.4,0.2-0.8,0.1c-0.4-0.2-0.4-0.3-0.1-0.6c0.3-0.3,0.2-0.1,0.4-0.3c0.2-0.2-0.2-0.2,0-0.4c0.2-0.2,0.2,0.1,0.5-0.3
					c0.3-0.4,0.2-0.4,0.4-0.7c0.1-0.2,0.3-0.5,0.6-0.7C111.1,16.6,111.5,16.1,111.6,16.1 M114.4,7c0.1-0.1,0.4-0.1,0.7,0
					c0.2,0-0.1,0,0.6-0.1c0.4,0,0.6,0.2,0.9,0.4c0.8,0.5,1.3,0.6,1.5,0.9c0.1,0.2,0.3,0.6,0.2,0.9c0,0.3-0.1,0.7-0.4,1
					c-0.3,0.2-0.4,0.5-0.6,0.6c-0.1,0.1-0.1,0.5-0.3,0.6c-0.3,0.1-0.5-0.1-0.8-0.1c-0.4,0-0.6,0.2-0.7,0.1c-0.1-0.1-0.2-0.2-0.3-0.3
					c-0.1-0.1-0.3,0-0.3-0.2c0-0.2-0.3-0.9-0.6-1.1c-0.1-0.1,0.1-0.5,0-0.7c-0.1-0.1-0.1-0.4-0.1-0.5c0-0.2,0-0.3,0-0.4
					c0-0.1-0.2-0.4-0.1-0.6C114.2,7.4,114.3,7.1,114.4,7 M111,9.7c-0.1-0.4,0.4-0.3,0.8-0.5c0.4-0.2,0.2-0.2,0.3,0.2
					c0.1,0.3-0.1,0-0.2,0.5c-0.1,0.5-0.1,0.4-0.4,0.6c-0.3,0.2-0.3,0-0.4-0.3C110.9,9.9,111.1,10.1,111,9.7 M105.9,7.1
					c-0.1-0.2,0.4-0.9,1.8-2.6c1.2-1.5,3.8-2.5,4.8-2.9c0.2-0.1,1-0.3,1.2-0.3c0.2,0,1-0.1,1.2-0.1c0.4-0.1,1-0.1,1.1-0.1
					c0.3-0.1,0.5-0.2,0.9-0.3c0.4-0.1,0.8,0.1,1.1,0.1c0.6-0.1,1.1,0.2,1.5,0.4c1.2,0.6,2.5,2.9,3,4.1c0.5,1.3,1.5,4.8,1.7,7.7
					c0.1,1.9,0,6.7,0,7.5c-0.1,1.3-0.2,4.4-0.3,5c-0.1,0.7-0.2,2-0.5,2.4c-0.5,0.8-2.4,2.3-2.9,2.7c-0.3,0.3-1.8,1.6-2,1.6
					c-0.2,0-0.5-0.5-0.9-0.9c-0.8-0.8-3-1.6-3.9-2.1c-0.9-0.5-3.8-0.8-5.6-0.9c-1.3-0.1-3.2-0.3-3.3-0.4c-0.1-0.2-0.2-0.1-0.4-0.1
					c-0.2,0-0.2,0.2-0.2,0.3c-0.1,0.1,0.1,0.1,0,0.4c-0.1,0.4,0.1,0.1,0.1,0.4c0,0.3,0.2,0.2,0.1,0.4c-0.1,0.3,0.4,0.5,0.5,0.8
					c0.1,0.4,0.1,0.8-0.3,0.8c-0.4,0-0.8,0.2-1.2,0c-0.3-0.1-1.4-1.1-1.5-1.7c0-0.5-0.1-1.7-0.2-2.1c-0.1-0.7-0.3-2.5-0.4-3.4
					c-0.1-0.9-0.2-0.7,0-1.1c0.2-0.4-0.3-0.4-0.1-0.9c0.1-0.3,0-1,0.2-1.4c0.1-0.2-0.1-0.2-0.1-0.4c0-0.3,0-0.4,0.1-0.7
					c0.1-0.2,0-0.4,0-0.8c0-0.4,0-0.5,0.1-0.8c0.1-0.2-0.1-0.2-0.1-0.6c0-0.2,0.2-1.8,0.3-2.5c0.1-0.6,0.2-2.3,0.4-2.5
					c0.3-0.6,0.5-2,0.6-2.5c0.1-0.5,0.6-1,0.7-1.4c0-0.2,0.3-0.3,0.4-0.2c0.1,0.1,0.2,0.5,0.2,0.7c0,0.2-0.2,1.3-0.3,1.5
					c-0.1,0.3-0.3,1.3-0.3,1.4c0,0.3,0,0.6-0.1,0.8c0,0.2-0.2,0.4-0.2,0.7c-0.1,0.2,0,0.5,0,0.7c-0.1,0.2,0,0.4-0.2,0.6
					c-0.1,0.2,0.1,0.4,0,0.5c-0.1,0.2,0.1,0.4,0,0.6c-0.1,0.2,0.1,0.3,0,0.6c-0.1,0.3-0.1,0.6-0.2,0.8c-0.1,0.2,0.2,0.4,0.1,0.7
					c-0.1,0.4,0,2.8-0.1,3.3c-0.1,0.5,0,2,0,2.3c0,0.2,0.1,0.6,0.2,0.6c0.2,0,0.2-0.7,0.5-0.7c0.1,0,0,0.4,0.1,0.7
					c0.1,0.5,0,0.1,0.1,0.9c0.1,0.6,0,1.5,0.1,1.8c0.1,0.3,0,0.6,0.4,0.6c0.3,0,0.2-0.2,0.4-0.5c0.2-0.3,0.2-0.3,0.4-0.2
					c0.1,0.1,1.2,0.1,1.5,0c0.4-0.1,0.7-0.4,1-0.7c0.4-0.3,1.8-1.6,2.5-2.2c0.3-0.3,1.2-1.3,1.5-1.7c0.6-0.6,1.5-1.5,1.6-1.6
					c0.1-0.1,0.2-0.3,0-0.5c-0.1-0.1-0.2-0.2-0.3-0.1c-0.4,0.2-0.8,0.8-1.2,1c-0.6,0.4-1.4,0.9-1.9,1.2c-0.5,0.3-1.2,0.6-1.7,0.9
					c-0.6,0.3-1.2,0.5-1.3,0.6c-0.2,0.1-0.3,0.2-0.5,0c-0.2-0.1-0.1-0.1,0-0.6c0.1-0.4-0.2-0.8,0.2-1.3c0.3-0.3,0.5-1.2,0.9-1.7
					c0.1-0.2,0.9-1.2,1.1-1.4c0.1-0.2,0.4-0.3,0.4-0.4c0.1-0.3,0.3-0.6,0.4-0.6c0.3-0.1,0.5-0.5,0.6-0.6c0.1-0.1,0.1-0.2,0.1-0.3
					c0-0.1-0.2-0.3-0.3-0.1c-0.2,0.2-0.5,0.3-0.6,0.4c-0.2,0.2-0.2,0.4-0.4,0.5c-0.3,0-0.3-0.5-0.3-0.7c0.1-0.2-0.1-0.3,0-0.5
					c0.3-0.5,0.2-0.6,0.2-0.7c0.1-0.1,0.1,0,0.3-0.2c0.1-0.1-0.1-0.3,0-0.4c0.2-0.3,0.3-0.6,0.5-0.7c0.2-0.1,0.6-0.7,0.7-0.8
					c0.1-0.2,0.1-0.4,0.1-0.6c0-0.1-0.2-0.1-0.3-0.2c-0.1-0.1,0-0.2,0-0.4c0-0.1-0.2-0.3-0.2-0.4c0-0.2,0-0.3-0.2-0.3
					c-0.2,0-0.7,0.5-1.2,0.6c-0.4,0.1-0.8-0.2-0.5-0.6c0.3-0.5,0.9-1.3,1-1.4c0.2-0.2,0.2-0.4,0.1-0.6c0-0.2-0.2-0.7-0.3-1.2
					c0-0.3-0.4-1.4-0.4-1.5c0-0.1-0.1-0.3,0.1-0.4c0.1,0,0.3,0.2,0.5,0.4c0.2,0.3,0.6,0.9,0.7,1.1c0.1,0.3,0.3,0.5,0.3,0.7
					c0,0.1,0.1,0.4,0.4,0.4c0.2,0,0.3,0,0.5-0.1c0.2-0.2,1.4-0.7,1.8-0.8c0.2-0.1,0.4-0.1,0.6,0c0.1,0.1,0.3,0.6,0.4,0.6
					c0.2,0.1,0.3,0.1,0.2,0.2c0,0.1,0,0-0.2,0.3c-0.2,0.3,0,0.3-0.2,0.7c-0.2,0.3-0.4,0.8-0.5,1c-0.1,0.2-0.3,0.3-0.4,0.4
					c-0.2,0.2-0.1,0.4-0.2,0.4c-0.3,0.1-0.3,0.1-0.3,0.3c-0.1,0.2-0.1,0.5,0.1,0.9c0.1,0.2,0.3,0.2,0.3,0.4c0.1,0.3,0.3,0.3,0.4,0.4
					c0.2,0.3,0.1,0.2,0.2,0.4c0.2,0.3,0.2,0.2,0.4,0.3c0.1,0.1,0.3,0.5,0.4,0.6c0.3,0.3,0.6,0.5,0.9,0.8c0.2,0.2,0.2,0.4,0.2,0.6
					c0,0.4,0,0.1-0.1,0.4c-0.1,0.2,0,0.4,0,0.6c0,0.2,0,0.4-0.2,0.6c-0.2,0.2-0.6,0.8-0.7,1c-0.1,0.2-0.1,0.4,0,0.4
					c0.1,0.1,0.2,0.2,0.4,0.1c0.3-0.2,1.1-1.5,1.8-2.4c0.4-0.5,1.1-1.7,1.3-2.1c0.2-0.3,0.7-1,0.8-1.1c0.1-0.1,0.3-0.1,0.3,0.1
					c0,0.1,0,0.3,0,0.4c0.1,0.1,0.2,0,0.2,0.2c0,0.2,0,0.3,0,0.4c0,0.1,0.1,0.1,0,0.3c-0.1,0.1,0,0.4-0.2,0.7
					c-0.3,0.4-1.2,1.5-1.5,1.9c-0.5,0.6-1.9,2.2-2.1,2.4c-0.1,0.1-0.3,0.3-0.2,0.5c0.1,0.2,0.5,0.9,0.7,1.1c0.3,0.2,0.9,0.6,1.2,0.6
					c0.3,0,0.5-0.1,0.7-0.2c0.5-0.4,0.9-1.3,1.1-1.7c0.2-0.6,0.6-1.8,0.7-2c0-0.3-0.1-0.6-0.1-0.7c0-0.1,0.2-0.1,0.3,0
					c0.1,0.2,0.1,0.5,0.1,0.7c0.1,0.4-0.5,2.2-0.6,2.8c-0.1,0.7-1,2-1.1,2.2c0,0.1,0,0.3-0.2,0.3c-0.2,0-0.3,0-0.5-0.1
					c-0.5-0.2-1-0.5-1.4-0.9c-0.4-0.3-1.2-1.4-1.3-1.5c-0.1-0.1-0.4-0.3-0.5-0.2c-0.2,0.2-0.6,0.7-0.8,0.8c-0.1,0.1-0.4,0.2-0.5,0.4
					c-0.2,0.2-0.5,0.5-0.7,0.8c-0.2,0.2-1,0.8-1.2,0.9c-0.2,0.2-0.5,0.6-0.7,0.7c-0.2,0.1-0.8,0.5-0.9,0.7c-0.2,0.2-0.5,0.6-0.7,0.7
					c-0.1,0.1-0.3,0.3-0.2,0.4c0.1,0.1,0.6-0.1,1-0.2c0.3,0,0.6-0.1,0.9-0.1c0.2,0,0.3-0.2,0.7-0.3c0.3-0.1,0.6,0,0.7,0
					c0.2-0.1,0.3-0.1,0.6-0.2c0.3-0.1,0.8,0,1-0.1c0.1-0.1,0.1-0.1,0.4-0.3c0.2-0.1,0.4,0,0.6-0.1c0.2-0.1,0.7-0.2,1.1-0.3
					c0.4-0.1,1.5-0.4,1.7-0.4c0.2,0,0.4-0.4,0.7-0.5c0.4-0.1,1,0,1.3-0.2c0.2-0.1,0.5,0.1,0.7,0.4c0.2,0.4,0,0.6-0.1,0.8
					c-0.2,0.6-0.3,0.8-0.5,1.1c-0.2,0.2-0.3,0.6-0.6,0.7c-0.4,0.1-0.6,0.2-1,0c-0.7-0.3-1.1,0-1.5-0.1c-0.6-0.1-0.9,0.2-1.2,0.2
					c-0.2,0-0.6-0.1-0.8,0c-0.4,0.2-0.7,0.2-1,0.3c-0.2,0.1-0.3,0.3-0.2,0.4c0.2,0.2,1,0.4,1.5,0.3c1-0.1,1.7,0.1,2,0.2
					c0.6,0,1,0.4,1.3,0.4c0.3,0,0.4,0.2,0.8,0.2c0.2,0.1,0.5,0.1,0.7,0.1c0.3,0,0.4,0.2,0.6,0.1c0.4-0.1,0.4-0.1,0.6-0.2
					c0.2,0,0.5-0.5,0.8-0.6c0.3-0.2,0.9-0.8,1.1-1.2c0.1-0.4,0.2-0.5,0.3-1c0.1-0.4-0.1-0.4,0.1-1.1c0.1-0.6,0-1.4,0.1-1.8
					c0.1-0.2,0-0.3,0.1-0.5c0.1-0.3,0-0.4,0-0.5c0-0.1,0.2-0.4,0.2-0.6c0-0.1-0.2-0.3-0.1-0.6c0.1-0.4,0-0.8,0.1-0.9
					c0.1-0.1-0.1-0.3-0.1-0.5c0.1-0.3,0.1-1.5,0-2.1c-0.1-0.8,0-1.8,0.1-2.2c0-0.2-0.3-0.3-0.2-0.5c0.1-0.2,0-0.6-0.1-0.9
					c-0.1-0.4-0.2-1.1-0.2-1.6c0-0.8-0.7-5.2-1.2-6.3c-0.6-1.6-2.3-3.3-3-3.6c-0.7-0.3-1.5-0.3-2.1-0.3c-0.4,0-1.9,0.2-3.3,0.7
					c-1.2,0.4-2.5,1-2.9,1.2c-0.5,0.3-1.1,1-1.4,1.3c-0.4,0.4-0.5,0.9-0.6,1.1c-0.3,0.6,0,1.4,0.1,1.6c0.1,0.4,0,0.6-0.1,0.7
					c-0.3,0.1-0.2,0.1-0.8,0.2c-0.2,0-0.6-0.2-0.6-0.3C106.4,8.1,106,7.5,105.9,7.1">
     </path>
    </g>
    <g>
     <path class="st1" d="M200,14.8c-0.4,0.2-1.4,1.4-1.7,1.5c-0.3,0.1-0.7-0.2-0.9-0.1c-0.6,0.1-2.1,0.5-3.1,0.6
					c-0.9,0.2-2.3,0.7-2.7,0.9c-0.3,0.1-0.3,0.3-0.1,0.5c0.5,0.5,1,0.7,1.2,1.1c0.2,0.2-0.1,0.3-0.2,0.7c-0.1,0.4-0.4,2.5-0.2,3.6
					c0.1,1,0.6,4,0.8,4.8c0.1,0.7,0.2,1.7,0.3,2.1c0.1,0.5-0.1,1.4-0.3,1.7c-0.7,0.8-1.8,1.9-2.1,2c-0.4,0.2-1,0.1-1.5-0.2
					c-0.5-0.4-0.8-1.3-0.9-1.7c-0.3-0.7-1.1-1.3-1.7-1.7c-1-0.7-3.2-1.8-3.5-2.6c0-0.1-0.1-0.3,0.1-0.4c0.4-0.2,0.7,0.4,0.9,0.6
					c0.6,0.4,1,0.5,1.4,0.7c0.6,0.2,1.8,0.5,2,0.6c0.6,0.2,1,0.3,1.5,0.1c0.3-0.1,0.9-1.2,0.9-1.6c0.1-1.1-0.2-2.4-0.2-2.9
					c0.1-1.5,0-1.8,0.2-3c0.1-0.8-0.1-1.5-0.1-1.9c0-0.5,0-1.2,0.2-1.5c0.1-0.3-0.2-0.3-0.5-0.2c-1.2,0.3-1.7,0.9-2.7,1.4
					c-0.7,0.3-2,1.1-2.5,1.3c-0.4,0.1-0.6,0.6-0.9,0.4c-0.2-0.2-0.6-0.2-0.8-0.5c-0.3-0.6,0.2-1.1,0.6-1.3c0.5-0.3,1-0.1,2.5-0.9
					c1.6-0.8,3.2-1.8,4.5-2.3c1.2-0.5,4.6-1.5,5.1-1.6c0.5-0.1,1.6-0.2,1.7-0.3c0.7-0.3,1.3-0.3,1.5-0.3c0.3-0.1,0.7,0,1,0.1
					C200.2,14.4,200.3,14.7,200,14.8 M186.7,11.2c0.4-0.2,0.6,0.3,0.7,0.3c0.4,0,0.8,0.1,1.4-0.1c0.4-0.1,3.1-1.5,4-1.7
					c1.6-0.4,3.8-1,4.5-0.9c0.3,0,0.3,0.2,0,0.3c-0.3,0.2-0.4,0.6-0.6,0.8c-0.2,0.1-0.1,0.6-0.2,0.8c-0.2,0.2-0.4,0.3-0.7,0.3
					c-0.4,0-0.5,0-0.7,0c-0.3,0-0.9,0.4-1.2,0.5c-0.1,0-0.3-0.2-0.5-0.2c-0.5-0.1-2.3,0.6-3.1,0.9c-0.7,0.3-2.1,1-2.7,1.7
					c-0.3,0.3-0.5,0.8-0.9,0.5c-0.4-0.2-0.5-1.1-0.6-1.5C186.1,12.5,186.1,11.5,186.7,11.2 M184.3,0.7c0.4,0.1,1.1,1.9,1.6,2.7
					c0.1,0.3,0.2,0.7,0.3,1.4c0,0.3,0.3,0.9,0.3,1.6c0,0.4,0.1,1-0.1,1.3c-0.1,0.2-0.4,0.4-0.4,0.7c0,0.2-0.3,0.6-0.5,0.7
					c-0.3,0.3-0.4,1-0.6,1.2c-0.3,0.4-1.1,0.4-1.7,0.6c-0.4,0.1-0.9,0.4-1.4,0.7c-0.5,0.3-1.3,0.6-1.8,1c-0.4,0.3-1.3,1.2-1.6,1.4
					c-0.2,0.1-0.5,0.4-0.2,0.6c0.3,0.3,1.1,0.1,2.2,0.6c0.7,0.3,1.4,0.8,1.8,1.4c0.3,0.5,0.2,1-0.2,1.2c-0.3,0.2-0.5,0.7-1.1,1.2
					c-0.3,0.3-0.5,0.9-1,1.3c-0.4,0.3-1.7,1.7-2.2,2.1c-0.3,0.2-0.3,0.6,0.2,0.7c0.4,0.2,1.7,1.1,2.2,1.7c0.5,0.7,0.7,2.1,0.8,3.3
					c0.1,0.8-0.5,1.9-0.7,2.7c-0.1,0.4-0.2,0.6-0.7,0.5c-0.1,0-0.4-0.3-0.6-0.6c-0.3-0.3-0.8-0.5-1-0.7c-0.3-0.3-0.6-0.4-0.8-0.7
					c-0.2-0.3-0.2-1.8-0.1-2.4c0.1-0.5,0.2-0.9,0.3-1.4c0.1-0.3,0.3-1.4-0.1-1.5c-0.2,0-1.1,0.4-1.6,0.7c-0.5,0.3-1.1,0.6-1.4,0.9
					c-0.3,0.3-0.5,0.8-0.5,1.1c0,0.3-0.3,0.6-0.4,0.5c-0.3-0.2-0.6,0-0.9,0c-0.3,0.1-0.5-0.2-0.9-0.4c-0.6-0.2-0.3-0.1-0.9-0.5
					c-0.3-0.3-1.1-1.4-0.8-2.2c0.2-0.4,0-0.6,0.4-1c1-1,1.5-1.5,2.5-2.7c0.6-0.6,1.5-1.6,2.1-2.1c0.2-0.2,0.5-0.5,0.6-0.9
					c0.1-0.3,0.7-0.7,0.3-1c-0.4-0.3-1-0.3-1.3-0.2c-0.3,0.1-0.5-0.2-0.8-0.4c-0.3-0.2-0.7,0.1-0.9-0.1c-0.3-0.2-0.4-0.4-0.7-0.6
					c-0.3-0.2-0.7-0.4-0.5-0.9c0.2-0.4,0-0.9,0.4-1.2c0.5-0.4,0.8-0.8,1.2-1c0.7-0.6,2.5-2.7,3.7-4.1c1.3-1.5,3.7-5,4.6-6
					c0.2-0.2,0.1-0.7,1.1-1.2C183.4,0.5,183.9,0.6,184.3,0.7">
     </path>
    </g>
   </g>
  </g>
  <g>
   <path class="st1" d="M155.7,5.4c0.1,0.4-0.2,1.7-0.6,2.8c-0.4,1.1-0.5,1.5-0.8,2.6c-0.1,0.5-0.4,0.3-0.6,0.4
			c-0.2,0.2,0.2-0.2-0.6,0.6c-0.5,0.5-1.5,1.1-1.8,1.4c-0.2,0.2-0.5,0.1-0.5-0.2c0-0.2,0-0.4,0-0.8c0-0.4,0.3-0.8,0.4-1
			c0.1-0.3,0.3-0.9,0.3-1.3c0-0.7,0.8-1.7,1.4-2.4C153.3,6.8,155.7,5.4,155.7,5.4 M151.9,16.7c0.3-0.2,0.3,0.4,0.6,0.3
			c0.2,0,0.3-0.3,0.5-0.4c0.1-0.1,0.3-0.2,0.4,0.3c0.1,0.3,0.1,0.6-0.1,0.8c-0.3,0.3-1.7,0.9-2,1c-0.2,0.1-0.2,0.1-0.3-0.2
			c-0.1-0.5,0.4-0.7,0.5-0.9C151.5,17.1,151.6,16.9,151.9,16.7 M155.1,23.2c0.3,0,1.1-0.4,1.4-0.6c0.2-0.2,0.4,0.1,0.3,0.3
			c-0.1,0.2-0.6,0.8-0.8,1.1c-0.1,0.2-0.2,0.3-0.4,0.2c-0.2-0.1-0.6-0.2-0.8-0.4C154.6,23.7,154.8,23.2,155.1,23.2 M148.3,23.7
			c0.1-0.2,0.7,0.5,1.1,0.5c0.4,0.1,0.9,0.3,1.4,0.4c0.7,0.2,1.4,0.6,2,1c0.4,0.3,0.8,0.4,1.3,0.8c0.2,0.2,0.1,0.4,0,0.5
			c-0.2,0.2-0.2,0.4-0.5,0.6c-0.7,0.5-3.1,1.8-3.5,2c-0.4,0.3-1.2,0.2-1.4-0.1c-0.2-0.2-0.5-0.5-0.5-1c-0.1-0.7-0.1-2-0.1-2.6
			C147.9,25.3,147.9,24.4,148.3,23.7 M140.5,24c0-0.1,0.8-0.5,1.2-0.7c0.4-0.2,0.8-0.4,1.2-0.4c0.2,0,0.4,0.1,0.3,0.4
			c-0.1,0.4-1.8,2-2.4,2.6c-0.1,0.1-0.4-0.3-0.4-0.6C140.4,24.9,140.5,24.4,140.5,24 M139.2,20.5c0.2,0,0.3,0.3,0.1,0.6
			c-0.1,0.2-0.5,0.3-0.6,0.2c-0.1-0.2,0-0.3,0.2-0.5C139.1,20.7,139,20.5,139.2,20.5 M141.1,14.2c0.4,0,0.4,0.2,0.5,0.2
			c0.1,0.1,0.3,0.7,0.5,0.9c0.1,0.2,0.3,0.4,0.5,0.5c0.1,0,0.1,0.6,0.1,0.9c0,0.3-0.7,0.4-1,0.6c-0.2,0.2-0.3,0.3-0.5,0.5
			c-0.2,0.2-0.2,0.4-0.5,0.6c-0.2,0.2,0,1.1-0.1,1.5c-0.1,0.2,0.2,0.2,0.4,0.2c0.1,0,0.1-0.2,0.3-0.3c0.2-0.1,0.6-0.5,0.9-0.6
			c0.2-0.1-0.1-0.7,0.2-0.7c0.2,0,0.2,0.6,0.3,0.8c0.1,0.2,0.4,0.9,0.3,1.2c-0.1,0.3-0.1,0.5-0.2,0.7c-0.1,0.2-1.1,0.6-1,1
			c0.1,0.3,0.8-0.1,1.2-0.1c0.3,0,0.9,0,1.1,0c0.3,0,0.7,0.4,1,0.9c0.1,0.3-0.9,1.2-1.4,1.9c-0.5,0.7-2.6,2.5-3.1,2.9
			c-0.2,0.2-0.1,1-0.2,1.1c-0.2,0.1-0.4,0-0.6,0.1c-0.2,0-0.5,0.2-0.6,0.4c-0.1,0.2-0.1,0.3,0.1,0.4c0.2,0.1,2.4-1,3.5-2
			c1.1-1,2.7-2.6,3.2-3.3c0.4-0.5,0.3-2.9,0.8-5.1c0.2-1,0.7-4.4,1.1-6c0.4-1.8,1.8-4.6,2.1-5.1c0.1-0.2,0-0.3,0.1-0.5
			c0.1-0.2,0.1-0.3,0.5-0.1c0.2,0.1,0.4,0.4,0.5,0.3c0.3-0.1-0.2,0.1,1-1c1.2-1.2,2.4-1.8,3-2.2c0.6-0.5,1.1-1,1.4-1.2
			c0.3-0.1,0.5,0,0.6,0.3c0.1,0.3,0.1,0.7,0,1.2c-0.1,0.3-0.3,0.8-0.6,1.4c-0.1,0.3-0.5,1.6-0.7,2.3c-0.2,0.7-0.5,2.5-0.7,2.8
			c-0.3,0.5,0,0.6-0.1,1.1c-0.1,0.2-0.4,0.9-0.6,1.4c-0.2,0.4-0.8,1.8-1,2c-0.2,0.2,0,0.5,0,0.6c0.1,0.2,0.7,0.5,1.1,1.5
			c0.1,0.3,0.1,0.6-0.2,0.9c-0.2,0.2-0.9,0.5-1.3,0.6c-0.5,0.2-2.6,1.3-3.3,1.9c-0.1,0.1-0.4,0.1-0.3-0.1c0.1-0.4,0-1.6,0.1-2.1
			c0.2-0.6,0.1-0.4,0.7-1.1c0.3-0.4,0.9-1.8,1.5-2.5c0.1-0.1,0.2-0.4,0-0.6c-0.2-0.1-0.4,0.1-0.6,0.2c-0.1,0-0.2,0.4-0.3,0.4
			c-0.2,0.1-0.4-0.1-0.7,0c-0.1,0.1-0.4,0.7-0.5,1.1c0,0.2-0.3,0.4-0.4,0.5c-0.1,0.1,0,0.7-0.1,1.1c-0.1,0.5-0.5,1.6-0.6,2.1
			c-0.1,0.3-0.2,1-0.2,1.4c0,0.2,0.1,0.4,0.3,0.4c0.2,0,0.3-0.4,0.5-0.4c0.2,0,1-0.1,1.3,0c0.2,0,0.4,0.2,1,0.1
			c0.3-0.1,0.7-0.2,1.1-0.2c0.3,0,2,0,2.7,0c0.3,0,1.7-0.7,2.1-0.9c0.4-0.2,1.3-1,1.9-1.6c0.3-0.4,1.2-0.6,1.6-0.4
			c0.2,0.1,0.1,0.7-0.2,1c-0.3,0.2-0.9,0.5-1.2,0.7c-0.5,0.3-1.3,1.3-1.6,1.9c-0.2,0.3-0.7,1.1-1,1.6c-0.1,0.1-0.1,0.3,0.2,0.6
			c0.2,0.2,2,0.7,2.8,1c0.1,0,0.2,0.2,0.4,0.1c0.1,0,0.3-0.1,0.3,0.2c0,0.1,1.2,0.2,1.3,0.3c0.4,0.3,2.1,0.7,2.7,1.1
			c0.2,0.1,0.3,0.2,0.5,0.4c0.1,0.1,0.4,0.1,0.4,0.4c0,0.2-3.3,1-4.5,1c-1,0-2-0.2-3-0.5c-0.8-0.3-2.5-1.5-2.7-1.5
			c-0.4,0-0.3,0.1-0.6,0.3c-0.1,0.1-0.2,0.3-0.4,0.5c-0.2,0.2-1,0.9-1.1,1.2c-0.2,0.3-0.7,0.4-1,0.7c-0.2,0.2-0.7,0.7-1,0.9
			c-0.5,0.3-1.2,0.8-1.5,0.9c-0.4,0.2-1.1-0.1-1.7-0.2c-0.6-0.1-1.4-0.8-1.7-1.3c-0.2-0.3-0.2-1.2-0.3-1.7c-0.1-0.3,0.2-1.4,0-1.5
			c-0.3-0.2-0.5,0-0.6,0.2c-0.2,0.2-0.5,0.7-1.3,1.3c-0.3,0.2-0.3,0.4-0.7,0.8c-0.3,0.3-0.9,0.7-1.4,1c-0.4,0.4-1.3,0.6-1.8,0.7
			c-0.2,0-0.7,0.4-1,0.5c-0.3,0.1-1.2,0.4-1.7,0.6c-0.3,0.1-0.5-0.6-0.6-1.2c-0.1-0.5,0.1-1,0.4-1.2c0.5-0.3,1.3-1.2,1.7-1.7
			c0.1-0.1-0.1-0.4-0.3-0.4c-0.7,0-1.1-0.3-1.1-0.3c0.5-0.1,1.4-0.1,1.7-0.5c0.1-0.1,0.2-0.2,0.2-0.4c0-0.2-0.1-0.3-0.1-0.5
			c0-0.1,0.1-0.3,0.1-0.4c-0.1-0.1-0.2-0.4-0.4-0.3c-0.4,0.3-1.2,1-1.4,1.4c-0.1,0.3-0.2,0.5-0.2,0.5c-0.1,0.1-0.4,0-0.4,0
			c-0.4,0.4-1.1,1.1-1.4,1.4c-0.2,0.2-0.6,0.4-0.8,0.2c-0.3-0.2-0.5-0.8-0.7-1c-0.1-0.2,0.1-0.5,0.2-0.6c0.3-0.2,1.1-0.6,1.3-0.8
			c0.2-0.2,1.2-1.2,1.5-1.4c0.4-0.3,0.9-0.6,1.2-1c0.2-0.2-0.1-0.5-0.2-0.4c-0.1,0.1-0.3,0.1-0.4-0.1c-0.2-0.5-0.6-1.7-0.6-2.1
			c0-0.3,0-0.4,0.1-0.7c0.3-0.8,1.4-2.2,1.8-2.4c0.3-0.2,0.1-0.5,0-0.7c-0.1-0.2-0.8-1-0.7-1.3c0-0.4,0.6-0.8,1.2-1.2
			C140.1,14.7,140.7,14.3,141.1,14.2 M143.1,7.9c0.2-0.3,1.2-0.4,1.7-0.3c0.4,0.1,0.9,0.9,1.1,1.3c0.1,0.3,0.3,0.8,0.2,1
			c-0.1,0.3-0.6,0.3-1,0.4c-0.2,0-0.6,0.2-0.8,0.3c-0.4,0.2-0.8,0.6-1,0.7c-0.2,0.2-0.5,0.2-0.6,0.2c-0.1,0-0.1-0.3,0.1-0.4
			c0.3-0.3,0.6-1.1,0.6-1.4c0-0.2-0.2-0.2-0.2-0.7C143.1,8.7,143,8.1,143.1,7.9 M143,2.1c0.2,0,0.3,0.2,0.6,0.4
			c0.2,0.1,0.3,0.3,0.5,0.3c0.3,0,0.3,0.4,0.4,0.5c0.1,0.1,0.3,0.5,0.4,0.6c0.2,0.2,0.2,0.3,0.4,0.5c0.2,0.1,0.2,0.6,0,0.9
			c-0.2,0.2-0.5,0.5-0.8,0.6c-0.3,0.1-1.1,0.1-1.5,0.4c-0.3,0.2-1,0.7-1.3,1.1c-0.7,0.7-1.4,2-2,3c-0.4,0.7-2,3.4-2.4,4.4
			c-0.2,0.4-1.2,2.5-1.5,3.3c-0.5,1-1.6,3.2-1.8,3.7c-0.3,0.8-0.1,1.4-0.3,1.7c-0.2,0.3-0.6,0.2-0.8,0.1c-0.2-0.2-0.6-0.5-0.7-0.9
			c-0.1-0.3,0.1-1.1,0.2-1.4c0.1-0.3,0.2-0.4,0.4-0.5c0.1-0.1,0.3,0,0.5-0.1c0.1-0.1,0.8-1.1,1.1-1.6c0.4-0.8,1.5-3,1.7-3.5
			c0.2-0.3,0.8-1.7,1.2-2.6c0.3-0.5,1.7-4.3,2.3-5.3c0.2-0.2,0.9-1.7,1.3-2.4C141.1,4.7,142.7,2.2,143,2.1">
   </path>
  </g>
  <g>
   <path class="st1" d="M82.9,26.9c0.1,0,0.2,0.1,0.2,0.3c0.1,0.3,0,0.3,0.1,0.5c0,0.3-0.1,0.3,0,0.5c0.1,0.3,0,0.4,0.1,0.7
			c0,0.4,0.1,0.8,0,1.1c-0.1,0.3,0,0.4,0,0.6c0,0.3-0.2,0.7-0.2,1c0,0.3,0.3,0.6,0.3,1c0,0.2-0.1,0.2-0.3,0.2
			c-0.2,0-0.5-0.2-0.6-0.4c-0.1-0.2-0.3-0.8-0.3-1.1c0-0.3,0.1-0.7,0.1-1c0-0.3,0-0.7,0-1c0-0.4,0.4-0.7,0.4-1.1
			c0-0.4-0.1-0.4-0.1-0.8C82.5,27.1,82.7,26.9,82.9,26.9 M86.3,10.5c0-0.2,0.8-0.7,1.2-1c0.4-0.2,0.7-0.6,1-0.8
			c0.5-0.2,0.9-0.2,1.2-0.2c0.4,0,0.9-0.2,1.2,0.1c0.2,0.3,0.1,0.5,0.1,0.8c-0.1,0.2-1.3,2.1-1.8,2.8c-0.6,0.7-2.1,2.4-2.2,2.5
			c-0.2,0.1-0.3-0.1-0.4-0.5c0-0.3-0.1-0.6,0-0.7c0.1-0.2,0-0.3-0.1-0.5c0-0.2-0.2-0.9-0.2-1.4C86.3,11.2,86.4,10.8,86.3,10.5
			 M76.3,16.6c0.1-0.1,0.6-0.4,0.9-0.6c0.2-0.1,0.6-0.4,0.8-0.6c0.5-0.4,0.4-0.3,0.9-0.6c0.2-0.1,0.5-0.2,0.5,0.2c0,0.5,0,1.5,0,1.8
			c0,0.3-0.1,0.4-0.1,0.7c0,0.2,0.1,0.4,0.1,0.5c0,0.1,0,0.2-0.1,0.5c0,0.2,0.1,0.4,0,0.7c-0.2,0.3-1,0.9-1.2,1
			c-0.3,0.1-0.1-0.4-0.5-0.7c-0.4-0.3-0.5-0.7-0.7-1c-0.2-0.4-0.2-0.5-0.4-0.9C76.1,17.2,76.1,16.9,76.3,16.6 M71,11.4
			c0.3-0.1,0.8,0.9,1.3,1.4c0.5,0.5,1.2,1.2,1.4,1.3c0.2,0.1,0.6,0.7,0.7,0.7c0.1,0,0.6-0.4,1-0.7c0.4-0.3,1.4-0.9,1.7-1.1
			c0.2-0.2,1-0.7,1.4-1c0.5-0.3,1.4-1,1.5-1.1c0-0.1,0-0.3,0.1-0.7c0.1-0.3-0.1-0.4-0.1-0.4c0-0.1,0.1-0.4,0.1-0.6c0-0.3,0-1,0-1.1
			c0.1-0.3,0.1-1,0.2-1.2c0.1-0.6,0-0.8,0.1-1.1c0.2-0.8,0.3-1.4,0.2-2c0-0.5-0.2-0.5,0-1.3c0.1-0.7,0.7-1.4,1-1.7
			c0.2-0.2,0.7-0.2,1.1,0.2c0.2,0.2,0.5,0.3,0.9,0.7c0.3,0.4,1,1.1,1.2,1.3c0.4,0.3,1,1.2,1.5,1.8c0.3,0.4,0.5,1.2,0.6,1.5
			c0.1,0.4,0,1,0.3,1c0.4,0.1,1.2-0.6,2.5-0.8c0.8-0.2,2.2-0.1,3.1-0.1c0.4,0,1.2,0,1.2,0.2C93.9,7,93.7,8,93.2,9.2
			c-0.5,1-0.7,1.2-1.2,1.9c-0.4,0.5-0.5,0.9-1.3,1.9c-0.8,1-2.2,2.4-2,2.7c0.3,0.2,1-0.1,1.1,0.4c0.1,0.4-0.4,0.7-0.6,1.2
			c-0.2,0.6-0.1,1.1-0.6,1.3c-0.5,0.2-0.8,0.2-1.1,0.4c-0.4,0.2-0.2,0.9-0.5,1.3c-0.4,0.8-0.2,1.6-0.5,2.3c-0.4,1-0.3,0.6-0.6,1.6
			c-0.1,0.2-0.2,1.4-0.3,1.8c-0.1,0.3-0.3,0.6-0.3,0.7c0,0.3-0.2,1.2-0.2,1.3c0,0.1-0.2,0.3-0.2,0.5c0,0.2-0.2,0.7-0.2,1.1
			c-0.2,1.5,0,1.7,0,2.5c0.1,0.8-0.1,1-0.2,1.2c-0.1,0.2-0.4,0.2-0.6,0.3c-0.2,0.1-0.2,0.3-0.4,0.4c-0.2,0.1-0.4-0.1-0.5,0
			c-0.2,0.3-0.3,0.6-0.5,0.7c-0.2,0-0.3-0.1-0.4-0.4c0-0.1-0.2-0.1-0.3-0.3c-0.1-0.3-0.1-0.1-0.4-0.6c-0.2-0.4,0-0.6-0.1-0.9
			c0-0.3-0.4-0.5-0.3-1c0.1-0.2,0-0.7-0.1-1.1C81,29.9,81,29.5,81,29.4c0-0.2-0.1,0,0-0.7c0.1-0.6-0.1-1.1-0.1-1.2
			c0-0.2-0.1-0.4-0.2-0.4c-0.1,0-0.2,0.1-0.3,0.4c-0.1,0.3-0.1,1,0,1.4c0,0.4,0.3,1.4,0.3,1.8c0,0.5,0,0.2,0,0.8
			c0,0.3,0.1,1,0.3,1.4c0.1,0.4,0.3,0.4,0.4,0.7c0.1,0.3,0.2,0.6,0.3,0.7c0.1,0.2,0.6,0.3,0.6,0.5c-0.1,0.2-0.3,0.5-0.5,0.5
			c-0.3,0-1-0.7-1.1-1c-0.2-0.6-0.4-2.5-0.5-3.2c-0.2-1.2-0.4-1.7-0.6-3.1c-0.2-1.4-0.5-5-0.5-5.8c0-0.5-0.3-0.7-0.5-0.7
			c-0.2,0-0.5,0.2-0.5,0.5c0,0.3,0,1-0.3,1.1c-0.3,0.1-2.1-0.4-3.5-1.3c-2.3-1.5-3.1-5.3-3.5-6c-0.5-1-0.5-3-0.4-3.4
			C70.4,12,70.6,11.6,71,11.4">
   </path>
  </g>
 </g>
</svg>