<svg height="6.000000pt" preserveaspectratio="xMidYMid meet" version="1.0" viewBox="0 0 1000.000000 66.000000" width="100.000000pt" xmlns="http://www.w3.org/2000/svg">
<g fill="#000000" stroke="none" transform="translate(0.000000,66.000000) scale(0.100000,-0.100000)">
<path d="M0 330 l0 -330 485 0 485 0 0 45 0 45 -375 0 -375 0 0 100 0 100 260
                0 260 0 0 45 0 45 -260 0 -260 0 0 95 0 95 375 0 375 0 0 45 0 45 -485 0 -485
                0 0 -330z"></path>
<path d="M1590 615 l0 -45 210 0 210 0 0 -285 0 -285 110 0 110 0 0 285 0 285
                210 0 210 0 0 45 0 45 -530 0 -530 0 0 -45z"></path>
<path d="M3340 330 l0 -330 485 0 485 0 0 45 0 45 -375 0 -375 0 0 100 0 100
                260 0 260 0 0 45 0 45 -260 0 -260 0 0 95 0 95 375 0 375 0 0 45 0 45 -485 0
                -485 0 0 -330z"></path>
<path d="M5040 330 l0 -330 115 0 115 0 0 145 0 145 143 0 142 -1 178 -144
                177 -145 121 0 121 0 -183 147 -184 148 47 6 c136 20 244 77 265 141 23 71
                -17 136 -106 174 -88 38 -172 44 -567 44 l-384 0 0 -330z m785 225 c106 -28
                135 -86 67 -131 -53 -36 -119 -44 -377 -44 l-245 0 0 95 0 95 248 0 c191 0
                261 -4 307 -15z"></path>
<path d="M6840 330 l0 -330 115 0 115 0 2 255 3 254 383 -254 383 -255 105 0
                104 0 0 330 0 330 -115 0 -115 0 -2 -254 -3 -254 -375 254 -375 254 -112 0
                -113 0 0 -330z"></path>
<path d="M8945 349 c-143 -170 -266 -318 -274 -329 -13 -20 -11 -20 100 -19
                l114 0 53 65 53 64 342 0 342 -1 50 -64 50 -64 113 0 c61 -1 112 2 112 5 0 3
                -126 151 -280 330 l-281 324 -117 -1 -117 0 -260 -310z m519 36 c69 -85 126
                -157 126 -160 0 -3 -117 -5 -261 -5 -143 0 -259 4 -257 8 5 14 252 311 259
                311 3 1 63 -69 133 -154z"></path>
</g>
</svg>