<svg version="1.1" id="Layer_1" xmlns:x="ns_extend;" xmlns:i="ns_ai;" xmlns:graph="ns_graphs;" xmlns="http://www.w3.org/2000/svg" xmlns:xlink="http://www.w3.org/1999/xlink" x="0px" y="0px" viewBox="0 0 315.8 51.5" style="enable-background:new 0 0 315.8 51.5;" xml:space="preserve">
 <style type="text/css">
  .st0{fill:#004387;}
	.st1{fill:url(#Shape1_1_);}
	.st2{fill:url(#Shape2_1_);}
	.st3{fill:url(#Shape3_1_);}
 </style>
 <metadata>
  <sfw xmlns="ns_sfw;">
   <slices>
   </slices>
   <sliceSourceBounds bottomLeftOrigin="true" height="51.5" width="315.8" x="41.8" y="-225.9">
   </sliceSourceBounds>
  </sfw>
 </metadata>
 <g id="freudenberg-logo-colored">
  <path id="freudenberg" class="st0" d="M281.1,4.4c2.8,0,4.6,0.7,4.6,3.4c0,3-2.3,3.7-4.3,3.7h-2.6V4.4L281.1,4.4z M281.7,0.4h-6.6
		c-1.1,0-1.5,0.7-1.5,1.7v22.5c0,0.8,1,0.9,2.6,0.9c1.6,0,2.6-0.1,2.6-0.9v-9.4h1.5c2.7,0,3.5,2.2,4.3,4l2.3,5.5
		c0.4,0.8,1.3,0.9,2.7,0.9c2,0,2.8-0.1,2.8-0.8c0-0.3-0.2-0.7-0.6-1.8l-2-4.7c-1.1-2.5-1.6-3.4-3.6-4.5c3.7-1.2,4.9-3.7,4.9-6.5
		C291,3.3,288.6,0.4,281.7,0.4z M210,24.6L210,8.8L209.9,6l1.1,2.4l1.1,2.2l6.3,11.8c0.8,1.5,1.5,3.1,3.7,3.1h2.2
		c0.9,0,1.9-0.4,1.9-1.9V1.3c0-0.7-1-0.8-2.3-0.8s-2.3,0.1-2.3,0.8c0,12.5,0,13.5,0,14.5c0.1,2.7,0,0.3,0.1,2.8h0l-0.7-1.5l-7.3-14
		c-1-1.9-1.5-2.6-3.6-2.6h-2.8c-1.2,0-1.9,0.8-1.9,1.9v22.4c0,0.8,1,0.9,2.3,0.9C209,25.5,210,25.4,210,24.6L210,24.6z M155.4,1.3
		c0-0.7-1-0.8-2.6-0.8c-1.6,0-2.6,0.1-2.6,0.8v14.5c0,3-1.2,5.9-5.1,5.9s-5.2-3-5.2-5.9V1.3c0-0.7-1-0.8-2.6-0.8s-2.6,0.1-2.6,0.8
		v15c0,7.2,4.7,9.6,10.3,9.6c5.6,0,10.2-2.4,10.2-9.6V1.3z M268.1,21.5h-8.8v-7.1h7.3c1,0,1.1-0.5,1.1-2s-0.1-2-1.1-2h-7.3V4.4h8.7
		c1,0,1.1-0.6,1.1-2s-0.1-2-1.1-2h-12.3c-1.1,0-1.5,0.7-1.5,1.7v21.8c0,1,0.5,1.6,1.5,1.6h12.4c1,0,1.1-0.6,1.1-2
		S269.1,21.5,268.1,21.5L268.1,21.5z M200.1,21.5h-8.8v-7.1h7.3c1,0,1-0.5,1-2s-0.1-2-1-2h-7.3V4.4h8.7c1,0,1.1-0.6,1.1-2
		s-0.1-2-1.1-2h-12.4c-1,0-1.5,0.7-1.5,1.7v21.8c0,1,0.5,1.6,1.5,1.6h12.4c1,0,1.1-0.6,1.1-2S201,21.5,200.1,21.5L200.1,21.5z
		 M130,21.5h-8.8v-7.1h7.3c1,0,1.1-0.5,1.1-2s-0.1-2-1.1-2h-7.3V4.4h8.7c1,0,1.1-0.6,1.1-2s-0.1-2-1.1-2h-12.3
		c-1.1,0-1.5,0.7-1.5,1.7v21.8c0,1,0.5,1.6,1.5,1.6H130c1,0,1.1-0.6,1.1-2S131,21.5,130,21.5L130,21.5z M88,15.5
		c1,0,1.1-0.6,1.1-2.1s-0.1-2.1-1.1-2.1h-7.4V4.6h7.9c1,0,1.1-0.6,1.1-2.1s-0.1-2.1-1.1-2.1H77.1c-1.2,0-1.7,0.6-1.7,1.7v22.5
		c0,0.8,1,0.9,2.6,0.9c1.6,0,2.6-0.1,2.6-0.9v-9.2H88z M307.9,0c-6.7,0-13,3.8-13,13c0,6.9,3.6,12.8,12.9,12.8
		c2.2,0,4.5-0.4,6.6-1.2c1.5-0.5,1.6-0.7,1.6-2.1v-8.2c0-1-0.8-1-2.5-1c-1.4,0-2.6,0-2.6,1V21c-0.8,0.4-1.8,0.7-2.9,0.7
		c-5.8,0-7.8-4.7-7.8-8.9c0-5.8,3.8-8.6,8.2-8.6c3,0,5,1.3,5.9,1.9c0.4,0.3,0.7,0.4,0.8,0.4c0.5,0,0.8-0.7,0.8-2.2
		c0-0.9,0-1.5-0.6-2.1C314.2,1.1,311.5,0,307.9,0z M239.4,4.3c2.6,0,4,0.7,4,3.1c0,2.6-1.6,3.3-3.7,3.3H237V4.3H239.4z M239.7,0.4
		h-6.4c-1,0-1.5,0.6-1.5,1.7v21.8c0,1,0.5,1.6,1.5,1.6h6.7c7.2,0,10-3.4,10-7.5c0-3.9-2.6-5.7-5-6c1.8-0.8,3.6-2.2,3.6-5.2
		C248.6,2.8,245.5,0.4,239.7,0.4z M239.8,14.5c3.7,0,4.9,1.2,4.9,3.5c0,3-2.1,3.7-4.2,3.7H237v-7.1H239.8z M168.7,0.4h-6.5
		c-1,0-1.5,0.7-1.5,1.7v21.8c0,1,0.5,1.6,1.5,1.6h6.1c10,0,13.3-5.2,13.3-12.6C181.6,5.5,178.4,0.4,168.7,0.4z M168.4,4.4
		c4.9,0,7.9,2.3,7.9,8.5c0,6-2.9,8.5-7.8,8.5h-2.7V4.4H168.4z M101,4.4c2.8,0,4.6,0.7,4.6,3.4c0,3-2.3,3.7-4.3,3.7h-2.6V4.4L101,4.4
		z M101.6,0.4h-6.6c-1,0-1.5,0.7-1.5,1.7v22.5c0,0.8,1,0.9,2.6,0.9c1.6,0,2.6-0.1,2.6-0.9v-9.4h1.6c2.6,0,3.4,2.2,4.2,4l2.3,5.5
		c0.3,0.8,1.3,0.9,2.7,0.9c2,0,2.8-0.1,2.8-0.8c0-0.3-0.1-0.7-0.6-1.8l-2-4.7c-1.1-2.5-1.6-3.4-3.6-4.5c3.7-1.2,4.9-3.7,4.9-6.5
		C111,3.3,108.6,0.4,101.6,0.4L101.6,0.4z">
  </path>
  <path id="claim" class="st0" d="M76,39.2h1.6v12.1H76V39.2z M91.1,51.3V39.2h-1.6v7.8c0,0.6,0,1.1,0,1.6h0c-0.2-0.5-0.6-1-1.3-1.9
		l-5.7-7.5h-1.7v12.1h1.6v-8.1c0-0.6,0-1.1-0.1-1.5h0c0.4,0.6,0.8,1.2,1.2,1.8l5.9,7.8L91.1,51.3z M104.5,51.3V39.2h-1.6v7.8
		c0,0.6,0,1.1,0,1.6h0c-0.2-0.5-0.6-1-1.3-1.9l-5.7-7.5h-1.7v12.1h1.6v-8.1c0-0.6,0-1.1-0.1-1.5h0c0.4,0.6,0.8,1.2,1.2,1.8l5.9,7.8
		L104.5,51.3z M108.7,40.9c-1.1,1.1-1.7,2.7-1.7,4.5c0,1.9,0.7,3.5,1.9,4.6c1.1,1,2.5,1.5,4.1,1.5c1.7,0,3.2-0.6,4.3-1.6
		c1.1-1.1,1.8-2.7,1.8-4.5c0-1.7-0.5-3.2-1.5-4.3c-1.1-1.2-2.7-1.9-4.5-1.9C111.4,39.1,109.8,39.8,108.7,40.9L108.7,40.9z M113,40.6
		c2.7,0,4.3,2,4.3,4.7c0,2.9-1.7,4.7-4.3,4.7s-4.3-1.8-4.3-4.7S110.4,40.6,113,40.6z M130.8,39.3h-1.7l-3.2,7.7
		c-0.3,0.7-0.5,1.3-0.7,1.9h0c-0.2-0.6-0.5-1.3-0.7-2l-2.9-7.6h-1.8l4.8,12.1h1L130.8,39.3z M140.3,51.3l-4.7-12.1h-1.1l-4.6,12.1
		h1.6l1.1-3.1h4.7l1.2,3.1H140.3z M136.8,46.8h-3.6l1.3-3.7c0.2-0.5,0.3-1,0.5-1.5h0c0.1,0.5,0.3,1,0.5,1.5L136.8,46.8z M149,39.2
		h-9v1.4h3.5v10.6h1.6V40.7h3.4L149,39.2z M150.8,51.3h1.6V39.2h-1.6V51.3z M165.8,51.3V39.2h-1.6v7.8c0,0.6,0,1.1,0,1.6h0
		c-0.2-0.5-0.6-1-1.3-1.9l-5.7-7.5h-1.7v12.1h1.6v-8.1c0-0.6,0-1.1-0.1-1.5h0c0.4,0.6,0.8,1.2,1.2,1.8l5.9,7.8L165.8,51.3z
		 M174.3,51.5c1.5,0,2.9-0.3,4.2-1v-5.1h-1.6v4.2c-0.4,0.3-1.2,0.4-2.2,0.4c-2.9,0-4.7-1.9-4.7-4.8c0-2.7,1.6-4.7,4.7-4.7
		c1.4,0,2.6,0.5,3.4,0.9l0-1.6c-1.1-0.5-2.2-0.7-3.4-0.7c-3.8,0-6.4,2.6-6.4,6.3C168.3,49,170.7,51.5,174.3,51.5L174.3,51.5z
		 M194.1,39.3h-9v1.4h3.5v10.6h1.6V40.7h3.4L194.1,39.3z M196.1,40.9c-1.1,1.1-1.7,2.7-1.7,4.5c0,1.9,0.7,3.5,1.9,4.6
		c1.1,1,2.5,1.5,4.1,1.5c1.7,0,3.2-0.6,4.3-1.6c1.1-1.1,1.8-2.7,1.8-4.5c0-1.7-0.5-3.2-1.5-4.3c-1.1-1.2-2.7-1.9-4.5-1.9
		C198.8,39.1,197.2,39.8,196.1,40.9L196.1,40.9z M200.4,40.6c2.7,0,4.3,2,4.3,4.7c0,2.9-1.7,4.7-4.3,4.7s-4.3-1.8-4.3-4.7
		S197.8,40.6,200.4,40.6z M214.3,51.5c1.5,0,2.9-0.3,4.2-1v-5.1h-1.6v4.2c-0.4,0.3-1.2,0.4-2.2,0.4c-2.9,0-4.7-1.9-4.7-4.8
		c0-2.7,1.6-4.7,4.7-4.7c1.4,0,2.6,0.5,3.4,0.9l0-1.6c-1.1-0.5-2.2-0.7-3.4-0.7c-3.8,0-6.4,2.6-6.4,6.3
		C208.2,49,210.6,51.5,214.3,51.5L214.3,51.5z M227.6,51.3v-1.5h-4.6v-4h4v-1.4h-4v-3.7h4l0.5-1.4h-6.2v12.1L227.6,51.3z
		 M238.2,39.3h-9v1.4h3.5v10.6h1.6V40.7h3.4L238.2,39.3z M249.6,51.3V39.2H248v5.2h-6.3v-5.2H240v12.1h1.6v-5.4h6.3v5.4L249.6,51.3z
		 M259,51.3v-1.5h-4.6v-4h4v-1.4h-4v-3.7h4l0.5-1.4h-6.2v12.1L259,51.3z M269.8,51.3c-1.9-3.1-3.2-5.3-3.7-5.5v0
		c1.2-0.5,2.3-1.5,2.3-3.2c0-1.8-1.2-3.3-4.1-3.3h-2.7v12.1h1.6v-5h1.2c0.5,0.1,1.5,1.9,3.5,5L269.8,51.3z M264.4,40.7
		c1.7,0,2.4,1,2.4,2c0,1.2-1,2.2-2.3,2.2h-1.2v-4.3L264.4,40.7L264.4,40.7z">
  </path>
  <g id="icon" transform="translate(0.000000, 0.328995)">
   <linearGradient id="Shape1_1_" gradientUnits="userSpaceOnUse" x1="-35.4674" y1="204.9227" x2="-34.7346" y2="203.732" gradientTransform="matrix(28.1472 0 0 -17.3216 1026.9185 3556.9739)">
    <stop offset="0" style="stop-color:#004488">
    </stop>
    <stop offset="6.000000e-02" style="stop-color:#004488">
    </stop>
    <stop offset="0.64" style="stop-color:#00A5E1">
    </stop>
    <stop offset="1" style="stop-color:#00A5E1">
    </stop>
   </linearGradient>
   <path id="Shape1" class="st1" d="M24.4,9.7L24.4,9.7c1.1-0.3,2.3-0.4,3.5-0.4c4.7,0,8.2,3.3,10.5,6l5.4,6.3
			c2.5,2.8,4.4,3.6,6.7,3.6c0.9,0,1.8-0.1,2-0.2v-0.1c-0.3-0.1-2.2-0.7-4.9-4L43.6,16c-3.3-4-7.3-8.2-13.2-8.2
			C26.7,7.8,24.7,9.4,24.4,9.7">
   </path>
   <linearGradient id="Shape2_1_" gradientUnits="userSpaceOnUse" x1="-33.5962" y1="200.215" x2="-32.7651" y2="199.0095" gradientTransform="matrix(20.526 0 0 -14.1512 716.5641 2842.9062)">
    <stop offset="0" style="stop-color:#004488">
    </stop>
    <stop offset="6.000000e-02" style="stop-color:#004488">
    </stop>
    <stop offset="0.64" style="stop-color:#00A5E1">
    </stop>
    <stop offset="1" style="stop-color:#00A5E1">
    </stop>
   </linearGradient>
   <path id="Shape2" class="st2" d="M25.2,11.4L25.2,11.4c2.9,0.4,5,1.6,7.8,4.8l5.1,5.9c1.6,1.9,3.7,3,6.1,3c0.5,0,1,0,1.5-0.2v0
			c-1.4-0.4-2.9-1.1-4.5-3L36,15.8c-2-2.4-5.3-4.9-8.5-4.9C26.5,10.9,25.6,11.1,25.2,11.4">
   </path>
   <linearGradient id="Shape3_1_" gradientUnits="userSpaceOnUse" x1="-51.7" y1="214.8293" x2="-51.0257" y2="213.1366" gradientTransform="matrix(40.4772 -19.2182 -48.2388 -16.126 12451.3809 2478.5798)">
    <stop offset="0" style="stop-color:#BCDCF5">
    </stop>
    <stop offset="0.14" style="stop-color:#5CC0EB">
    </stop>
    <stop offset="0.2" style="stop-color:#00A5E1">
    </stop>
    <stop offset="0.22" style="stop-color:#009DDA">
    </stop>
    <stop offset="0.32" style="stop-color:#005C9E">
    </stop>
    <stop offset="0.56" style="stop-color:#004387">
    </stop>
    <stop offset="1" style="stop-color:#004387">
    </stop>
   </linearGradient>
   <path id="Shape3" class="st3" d="M2.8,0C1.2,0,0,0.9,0,2.9v19.4c0,1.6,1.2,2.9,2.8,2.9h1.9c4.2,0,7.2-4.4,11.2-9.1
			c4.4-5.2,9-10,15.6-10c6.5,0,11.3,4.7,15.8,10c4.3,5,6.9,9.1,11,9.1h1.6c2.1,0,3.2-1.3,3.2-2.9V2.9C63,0.8,61.8,0,60.2,0H2.8z">
   </path>
  </g>
 </g>
</svg>